<svg xmlns="http://www.w3.org/2000/svg" width="26.522" height="30" viewBox="0 0 26.522 30">
  <path id="_001-google-play" data-name="001-google-play" d="M54.9,12.749l-.014-.008L33.649.384a2.64,2.64,0,0,0-4,2.261V27.356a2.639,2.639,0,0,0,4,2.261L54.9,17.262a2.64,2.64,0,0,0,0-4.513Zm-7.157-2.128-3.12,3.134L32.927,2ZM31.407,27.03V2.966L43.381,15Zm1.511.977L44.623,16.249l3.121,3.137ZM53.993,15.754l-4.676,2.719L45.864,15l3.451-3.466,4.677,2.721a.88.88,0,0,1,0,1.5Z" transform="translate(-29.647 0)" fill="#19647e"/>
</svg>
