<svg xmlns="http://www.w3.org/2000/svg" width="30.933" height="30.933" viewBox="0 0 30.933 30.933">
  <g id="_002-app-store" data-name="002-app-store" transform="translate(0 0)">
    <g id="Grupo_287" data-name="Grupo 287">
      <g id="Grupo_286" data-name="Grupo 286">
        <path id="Caminho_112" data-name="Caminho 112" d="M24.59,0H6.344A6.351,6.351,0,0,0,0,6.344V24.59a6.351,6.351,0,0,0,6.344,6.344H24.59a6.351,6.351,0,0,0,6.344-6.344V6.344A6.351,6.351,0,0,0,24.59,0Zm4.531,24.59a4.536,4.536,0,0,1-4.531,4.531H6.344A4.536,4.536,0,0,1,1.813,24.59V6.344A4.536,4.536,0,0,1,6.344,1.813H24.59a4.536,4.536,0,0,1,4.531,4.531Z" fill="#19647e"/>
      </g>
    </g>
    <g id="Grupo_289" data-name="Grupo 289" transform="translate(5.099 6.252)">
      <g id="Grupo_288" data-name="Grupo 288">
        <path id="Caminho_113" data-name="Caminho 113" d="M99.026,106.145a1.536,1.536,0,0,0-2.814-.37l-.236.409-.236-.409a1.538,1.538,0,0,0-2.1-.562h0a1.538,1.538,0,0,0-.562,2.1l1.123,1.945-4.144,7.178H87.036a1.536,1.536,0,1,0,0,3.072H98.7l-1.774-3.072H93.6l5.268-9.124A1.526,1.526,0,0,0,99.026,106.145Z" transform="translate(-85.5 -105.006)" fill="#19647e"/>
      </g>
    </g>
    <g id="Grupo_291" data-name="Grupo 291" transform="translate(16.041 11.59)">
      <g id="Grupo_290" data-name="Grupo 290">
        <path id="Caminho_114" data-name="Caminho 114" d="M275.778,200.115h-3.021l-3.435-5.949-1.774,3.072,5.333,9.237a1.526,1.526,0,0,0,.933.716,1.545,1.545,0,0,0,.4.053,1.537,1.537,0,0,0,1.328-2.3l-1.012-1.752h1.248a1.536,1.536,0,1,0,0-3.072Z" transform="translate(-267.548 -194.166)" fill="#19647e"/>
      </g>
    </g>
    <g id="Grupo_293" data-name="Grupo 293" transform="translate(6.69 21.774)">
      <g id="Grupo_292" data-name="Grupo 292">
        <path id="Caminho_115" data-name="Caminho 115" d="M111.51,361l-.3.523a1.536,1.536,0,0,0,2.66,1.536L115.058,361Z" transform="translate(-111.003 -361)" fill="#19647e"/>
      </g>
    </g>
  </g>
</svg>
