<svg xmlns="http://www.w3.org/2000/svg" width="23" height="23" viewBox="0 0 23 23"><path d="M16.774,0H6.226A6.233,6.233,0,0,0,0,6.226V16.774A6.233,6.233,0,0,0,6.226,23H16.774A6.233,6.233,0,0,0,23,16.774V6.226A6.233,6.233,0,0,0,16.774,0Zm4.878,16.774a4.883,4.883,0,0,1-4.878,4.877H6.226a4.883,4.883,0,0,1-4.878-4.877V6.226A4.883,4.883,0,0,1,6.226,1.348H16.774a4.883,4.883,0,0,1,4.877,4.878Z" fill="#19647e"/><path d="M122.293,116a6.289,6.289,0,1,0,6.289,6.289A6.3,6.3,0,0,0,122.293,116Zm0,11.229a4.941,4.941,0,1,1,4.941-4.941A4.946,4.946,0,0,1,122.293,127.233Z" transform="translate(-110.793 -110.793)" fill="#19647e"/><path d="M359.835,66.285a1.858,1.858,0,1,0,1.858,1.858A1.86,1.86,0,0,0,359.835,66.285Zm0,2.368a.51.51,0,1,1,.51-.51A.511.511,0,0,1,359.835,68.653Z" transform="translate(-341.896 -63.307)" fill="#19647e"/></svg>