<svg xmlns="http://www.w3.org/2000/svg" width="45" height="45" viewBox="0 0 45 45"><g transform="translate(-219 -58)"><g transform="translate(-61)"><g transform="translate(0.267)"><circle cx="22.5" cy="22.5" r="22.5" transform="translate(279.733 58)" fill="#8894c3"/></g></g><g transform="translate(231 69.95)"><g transform="translate(0 0.05)"><path d="M0,9.2A9.148,9.148,0,0,0,15.221,16.05l5.833,5.833a.553.553,0,1,0,.784-.779L16,15.271A9.151,9.151,0,1,0,0,9.2Zm17.2,0a8.05,8.05,0,1,1-8.05-8.05A8.061,8.061,0,0,1,17.2,9.2Z" transform="translate(0 -0.05)" fill="#fff"/></g></g></g></svg>